<?xml version="1.0" standalone="no"?>
<!DOCTYPE svg PUBLIC "-//W3C//DTD SVG 20010904//EN"
 "http://www.w3.org/TR/2001/REC-SVG-20010904/DTD/svg10.dtd">
<svg version="1.0" xmlns="http://www.w3.org/2000/svg"
 width="215.000000pt" height="215.000000pt" viewBox="0 0 215.000000 215.000000"
 preserveAspectRatio="xMidYMid meet">
<metadata>
Created by potrace 1.14, written by Peter Selinger 2001-2017
</metadata>
<g transform="translate(0.000000,215.000000) scale(0.100000,-0.100000)"
fill="#000000" stroke="none">
<path d="M1591 1691 c-7 -5 -62 -57 -121 -116 l-108 -106 -53 29 c-87 49 -158
65 -263 60 -111 -6 -183 -32 -269 -96 -189 -142 -243 -410 -125 -621 l30 -53
-116 -118 c-125 -126 -134 -143 -91 -185 42 -43 59 -34 185 91 l118 116 53
-30 c87 -49 158 -65 263 -60 111 6 183 32 269 96 189 142 243 410 125 621
l-30 53 116 118 c125 126 134 143 91 185 -25 26 -50 31 -74 16z m-408 -287
c89 -30 94 -22 -159 -275 -126 -126 -234 -229 -241 -229 -6 0 -21 25 -32 55
-28 75 -28 175 1 252 28 76 114 162 190 192 66 25 176 27 241 5z m207 -202
c31 -81 25 -196 -14 -275 -34 -71 -110 -139 -184 -167 -75 -29 -194 -25 -267
8 l-49 23 239 239 c131 131 242 237 246 234 4 -2 17 -30 29 -62z"/>
</g>
</svg>
